HIERARCHY
ROOT hip
{
  OFFSET 0 0 0
  CHANNELS 6 Xposition Yposition Zposition Zrotation Yrotation Xrotation
  JOINT abdomen
  {
    OFFSET 0 20.6881 -0.73152
    CHANNELS 3 Zrotation Xrotation Yrotation
    JOINT chest
    {
      OFFSET 0 11.7043 -0.48768
      CHANNELS 3 Zrotation Xrotation Yrotation
      JOINT neck
      {
        OFFSET 0 22.1894 -2.19456
        CHANNELS 3 Zrotation Xrotation Yrotation
        JOINT head
        {
          OFFSET -0.24384 7.07133 1.2192
          CHANNELS 3 Zrotation Xrotation Yrotation
          JOINT leftEye
          {
            OFFSET 4.14528 8.04674 8.04672
            CHANNELS 3 Zrotation Xrotation Yrotation
            End Site
            {
              OFFSET 1 0 0
            }
          }
          JOINT rightEye
          {
            OFFSET -3.6576 8.04674 8.04672
            CHANNELS 3 Zrotation Xrotation Yrotation
            End Site
            {
              OFFSET 1 0 0
            }
          }
        }
      }
      JOINT rCollar
      {
        OFFSET -2.68224 19.2634 -4.8768
        CHANNELS 3 Zrotation Xrotation Yrotation
        JOINT rShldr
        {
          OFFSET -8.77824 -1.95073 1.46304
          CHANNELS 3 Zrotation Xrotation Yrotation
          JOINT rForeArm
          {
            OFFSET -28.1742 -1.7115 0.48768
            CHANNELS 3 Zrotation Xrotation Yrotation
            JOINT rHand
            {
              OFFSET -22.5879 0.773209 7.07136
              CHANNELS 3 Zrotation Xrotation Yrotation
              JOINT rThumb1
              {
                OFFSET -1.2192 -0.487915 3.41376
                CHANNELS 3 Zrotation Xrotation Yrotation
                JOINT rThumb2
                {
                  OFFSET -3.37035 -0.52449 3.41376
                  CHANNELS 3 Zrotation Xrotation Yrotation
                  End Site
                  {
                    OFFSET -1.78271 -1.18214 1.43049
                  }
                }
              }
              JOINT rIndex1
              {
                OFFSET -7.75947 0.938293 5.60832
                CHANNELS 3 Zrotation Xrotation Yrotation
                JOINT rIndex2
                {
                  OFFSET -2.54057 -0.884171 1.56538
                  CHANNELS 3 Zrotation Xrotation Yrotation
                  End Site
                  {
                    OFFSET -1.62519 -0.234802 1.16502
                  }
                }
              }
              JOINT rMid1
              {
                OFFSET -8.24714 1.18213 3.41376
                CHANNELS 3 Zrotation Xrotation Yrotation
                JOINT rMid2
                {
                  OFFSET -3.10165 -0.590103 1.0647
                  CHANNELS 3 Zrotation Xrotation Yrotation
                  End Site
                  {
                    OFFSET -2.48547 -0.328903 0.83742
                  }
                }
              }
              JOINT rRing1
              {
                OFFSET -8.82822 0.546677 1.51678
                CHANNELS 3 Zrotation Xrotation Yrotation
                JOINT rRing2
                {
                  OFFSET -2.60934 -0.819778 -0.0198488
                  CHANNELS 3 Zrotation Xrotation Yrotation
                  End Site
                  {
                    OFFSET -2.33842 -0.294052 0.168128
                  }
                }
              }
              JOINT rPinky1
              {
                OFFSET -8.27202 -0.0477905 -0.4584
                CHANNELS 3 Zrotation Xrotation Yrotation
                JOINT rPinky2
                {
                  OFFSET -1.82734 -0.647385 -0.700984
                  CHANNELS 3 Zrotation Xrotation Yrotation
                  End Site
                  {
                    OFFSET -1.69225 -0.51767 -0.607171
                  }
                }
              }
            }
          }
        }
      }
      JOINT lCollar
      {
        OFFSET 2.68224 19.2634 -4.8768
        CHANNELS 3 Zrotation Xrotation Yrotation
        JOINT lShldr
        {
          OFFSET 8.77824 -1.95073 1.46304
          CHANNELS 3 Zrotation Xrotation Yrotation
          JOINT lForeArm
          {
            OFFSET 28.1742 -1.7115 0.48768
            CHANNELS 3 Zrotation Xrotation Yrotation
            JOINT lHand
            {
              OFFSET 22.5879 0.773209 7.07136
              CHANNELS 3 Zrotation Xrotation Yrotation
              JOINT lThumb1
              {
                OFFSET 1.2192 -0.487915 3.41376
                CHANNELS 3 Zrotation Xrotation Yrotation
                JOINT lThumb2
                {
                  OFFSET 3.37035 -0.52449 3.41376
                  CHANNELS 3 Zrotation Xrotation Yrotation
                  End Site
                  {
                    OFFSET 1.78271 -1.18214 1.43049
                  }
                }
              }
              JOINT lIndex1
              {
                OFFSET 7.75947 0.938293 5.60832
                CHANNELS 3 Zrotation Xrotation Yrotation
                JOINT lIndex2
                {
                  OFFSET 2.54057 -0.884171 1.56538
                  CHANNELS 3 Zrotation Xrotation Yrotation
                  End Site
                  {
                    OFFSET 1.62519 -0.234802 1.16502
                  }
                }
              }
              JOINT lMid1
              {
                OFFSET 8.24714 1.18213 3.41376
                CHANNELS 3 Zrotation Xrotation Yrotation
                JOINT lMid2
                {
                  OFFSET 3.10165 -0.590103 1.0647
                  CHANNELS 3 Zrotation Xrotation Yrotation
                  End Site
                  {
                    OFFSET 2.48547 -0.328903 0.83742
                  }
                }
              }
              JOINT lRing1
              {
                OFFSET 8.82822 0.546677 1.51678
                CHANNELS 3 Zrotation Xrotation Yrotation
                JOINT lRing2
                {
                  OFFSET 2.60934 -0.819778 -0.0198488
                  CHANNELS 3 Zrotation Xrotation Yrotation
                  End Site
                  {
                    OFFSET 2.33842 -0.294052 0.168128
                  }
                }
              }
              JOINT lPinky1
              {
                OFFSET 8.27202 -0.0477905 -0.4584
                CHANNELS 3 Zrotation Xrotation Yrotation
                JOINT lPinky2
                {
                  OFFSET 1.82734 -0.647385 -0.700984
                  CHANNELS 3 Zrotation Xrotation Yrotation
                  End Site
                  {
                    OFFSET 1.69225 -0.51767 -0.607171
                  }
                }
              }
            }
          }
        }
      }
    }
  }
  JOINT rButtock
  {
    OFFSET -8.77824 4.35084 1.2192
    CHANNELS 3 Zrotation Xrotation Yrotation
    JOINT rThigh
    {
      OFFSET 0 -1.70687 -2.19456
      CHANNELS 3 Zrotation Xrotation Yrotation
      JOINT rShin
      {
        OFFSET 0 -36.8199 0.73152
        CHANNELS 3 Zrotation Xrotation Yrotation
        JOINT rFoot
        {
          OFFSET 0.73152 -45.1104 -5.12064
          CHANNELS 3 Zrotation Xrotation Yrotation
          End Site
          {
            OFFSET -1.1221 -3.69964 12.103
          }
        }
      }
    }
  }
  JOINT lButtock
  {
    OFFSET 8.77824 4.35084 1.2192
    CHANNELS 3 Zrotation Xrotation Yrotation
    JOINT lThigh
    {
      OFFSET 0 -1.70687 -2.19456
      CHANNELS 3 Zrotation Xrotation Yrotation
      JOINT lShin
      {
        OFFSET 0 -36.8199 0.73152
        CHANNELS 3 Zrotation Xrotation Yrotation
        JOINT lFoot
        {
          OFFSET -0.73152 -45.1104 -5.12064
          CHANNELS 3 Zrotation Xrotation Yrotation
          End Site
          {
            OFFSET 1.1221 -3.69964 12.103
          }
        }
      }
    }
  }
}
MOTION
Frames:	7
Frame Time:	0.00833333
69.0697 84.9057 -118.269 0.0 0.0 0.0 -0.143208 -0.00270233 -0.0041476 -0.0395945 -0.00448412 -0.00686039 -2.0116e-15 -7.95139e-16 -4.26914e-24 -6.07536e-15 3.18055e-15 -3.10601e-18 -0.0 0.0 0.0 -0.0 0.0 0.0 -1.04497e-15 2.32951e-18 1.49089e-16 -1.91069e-14 -6.33626e-16 7.95139e-16 -3.63875e-13 1.07344e-13 3.18055e-15 -4.20712e-12 -1.23371e-13 -1.90833e-14 -9.91705e-12 -2.69307e-14 -1.27222e-14 -1.7138e-11 -4.77083e-14 -2.54444e-14 -9.9118e-12 -2.34566e-14 -2.22639e-14 7.73091 5.47488 0.417314 -9.91722e-12 -2.75317e-14 -3.18055e-15 2.90554 0.965183 0.102902 -9.90987e-12 -2.64384e-14 -1.43125e-14 10.2786 0.731801 0.0259123 -9.91836e-12 -2.62396e-14 -9.54166e-15 2.22167 -0.733487 -0.20892 -1.04234e-15 1.55301e-18 -1.49089e-16 -2.34355e-14 -4.34841e-17 -9.93923e-16 -3.72224e-13 -1.07145e-13 9.54166e-15 -4.20165e-12 1.1937e-13 -3.18055e-15 -9.92e-12 2.75829e-14 -9.54166e-15 -1.71142e-11 5.40694e-14 -1.27222e-14 -9.92532e-12 3.06128e-14 0.0 -7.73091 5.47488 -0.417314 -9.92114e-12 2.8128e-14 -9.54166e-15 -2.90554 0.965183 -0.102902 -9.92773e-12 2.74323e-14 -1.03368e-14 -10.2786 0.731801 -0.0259123 -9.91757e-12 2.70347e-14 -1.59028e-14 -2.22167 -0.733487 0.20892 -2.03217e-16 0.0 -3.88251e-19 0.331236 -2.90286 -0.0343701 -0.0059985 -0.292942 -0.0527699 -0.439389 3.19624 0.113627 2.03217e-16 0.0 3.88251e-19 -0.551081 -3.50685 0.0483547 0.00427648 0.801058 0.0368135 0.443226 2.70625 -0.104402
69.3334 82.8695 -119.399 1.6184 -8.492 7.2873 -0.691575 -3.03141 -0.0881932 0.127608 -0.934403 -0.0242974 -1.16787 3.18331 -0.411191 3.05043 -2.35876 -0.521136 -0.0 0.0 0.0 -0.0 0.0 0.0 -4.76481e-15 5.92579e-14 -2.83812e-14 0.764094 16.047 -2.75737 2.38406 14.8173 -42.3009 0.132183 -8.20648 -1.1138 6.71139e-11 -6.26537e-10 3.6895e-10 1.06596e-10 -1.13915e-09 6.40849e-10 6.71184e-11 -6.26535e-10 3.68942e-10 7.73091 5.47488 0.417314 6.71132e-11 -6.26537e-10 3.68958e-10 2.90554 0.965183 0.102902 6.71208e-11 -6.26536e-10 3.68949e-10 10.2786 0.731801 0.0259123 6.71128e-11 -6.26535e-10 3.68955e-10 2.22167 -0.733487 -0.20892 -4.73756e-15 5.92581e-14 -2.86304e-14 -2.99885 17.7638 1.79292 -2.05694 15.1255 41.9527 -0.0162924 -3.11562 0.43651 3.25073e-11 -3.09399e-10 -2.5468e-10 6.00488e-11 -5.45111e-10 -4.41748e-10 3.24983e-11 -3.09397e-10 -2.54664e-10 -7.73091 5.47488 -0.417314 3.25068e-11 -3.09406e-10 -2.5468e-10 -2.90554 0.965183 -0.102902 3.25011e-11 -3.09406e-10 -2.54681e-10 -10.2786 0.731801 -0.0259123 3.25112e-11 -3.09398e-10 -2.54687e-10 -2.22167 -0.733487 0.20892 -2.03217e-16 0.0 -3.88251e-19 -1.1597 -10.2854 2.91943 0.0142525 9.54596 0.112883 -1.0198 1.36503 -7.27351 2.03217e-16 0.0 3.88251e-19 -3.43129 -7.43153 -5.68164 -0.0300072 7.45079 -0.098595 0.948815 -1.1467 5.8957
69.4584 82.8575 -119.356 1.8404 -8.5727 7.0955 -1.27872 -6.24323 -0.177729 0.303782 -1.91457 -0.0426766 -2.35081 6.55078 -0.847886 6.22043 -4.85435 -1.07122 -0.0 0.0 0.0 -0.0 0.0 0.0 -7.4558e-15 1.25682e-13 -6.32011e-14 3.40882 33.0311 -6.4643 18.2528 4.22451 -85.0375 -0.0905192 -16.6976 -2.34748 1.50063e-10 -1.33924e-09 7.89035e-10 2.39199e-10 -2.43507e-09 1.3703e-09 1.50067e-10 -1.33923e-09 7.89029e-10 7.73091 5.47488 0.417314 1.50062e-10 -1.33923e-09 7.89041e-10 2.90554 0.965183 0.102902 1.5007e-10 -1.33923e-09 7.89036e-10 10.2786 0.731801 0.0259123 1.50062e-10 -1.33923e-09 7.89042e-10 2.22167 -0.733487 -0.20892 -7.39764e-15 1.25683e-13 -6.33937e-14 -7.55319 36.605 4.32836 -17.9283 4.8109 84.4631 0.0202054 -6.25719 0.881655 7.11529e-11 -6.28147e-10 -5.23051e-10 1.30896e-10 -1.10709e-09 -9.07441e-10 7.11398e-11 -6.28145e-10 -5.23028e-10 -7.73091 5.47488 -0.417314 7.1153e-11 -6.28162e-10 -5.23051e-10 -2.90554 0.965183 -0.102902 7.11483e-11 -6.28161e-10 -5.23051e-10 -10.2786 0.731801 -0.0259123 7.11585e-11 -6.28143e-10 -5.23057e-10 -2.22167 -0.733487 0.20892 -2.03217e-16 0.0 -3.88251e-19 -1.86311 -18.0004 6.27632 -0.0294405 19.9115 0.302357 -2.14214 -0.521154 -15.1105 2.03217e-16 0.0 3.88251e-19 -7.3339 -11.4095 -11.8864 -0.0310878 14.4666 -0.247696 2.35814 -5.11608 12.2898
69.5427 82.8394 -119.342 1.8962 -8.6268 7.023 -1.81526 -9.08875 -0.259168 0.460314 -2.79424 -0.059232 -3.36491 9.54794 -1.24897 9.02173 -7.07393 -1.57407 -0.0 0.0 0.0 -0.0 0.0 0.0 -1.22045e-14 1.77769e-13 -8.54417e-14 8.79508 47.5818 -11.8313 22.644 -26.8402 -107.671 -0.641067 -24.5803 -3.63717 2.21176e-10 -1.87956e-09 1.10688e-09 3.54063e-10 -3.41734e-09 1.9226e-09 2.21179e-10 -1.87956e-09 1.10687e-09 7.73091 5.47488 0.417314 2.21174e-10 -1.87956e-09 1.10688e-09 2.90554 0.965183 0.102902 2.21182e-10 -1.87956e-09 1.10688e-09 10.2786 0.731801 0.0259123 2.21175e-10 -1.87955e-09 1.10688e-09 2.22167 -0.733487 -0.20892 -1.2128e-14 1.77771e-13 -8.55931e-14 -14.1892 53.0097 8.5334 -22.6395 -26.1167 106.496 0.0951587 -9.34468 1.32518 1.17362e-10 -9.28252e-10 -7.64022e-10 2.14375e-10 -1.63544e-09 -1.32522e-09 1.17346e-10 -9.28252e-10 -7.63993e-10 -7.73091 5.47488 -0.417314 1.17363e-10 -9.28273e-10 -7.64022e-10 -2.90554 0.965183 -0.102902 1.17359e-10 -9.28273e-10 -7.64022e-10 -10.2786 0.731801 -0.0259123 1.17369e-10 -9.28247e-10 -7.64029e-10 -2.22167 -0.733487 0.20892 -2.03217e-16 0.0 -3.88251e-19 -1.66552 -24.7823 9.57506 -0.135487 29.2229 0.503593 -3.56599 -2.09864 -22.0568 2.03217e-16 0.0 3.88251e-19 -11.5745 -14.7019 -17.5916 0.00104964 20.7498 -0.392357 4.35989 -8.43867 18.0947
69.5946 82.7873 -119.353 1.8228 -8.5564 7.0655 -2.20605 -11.0186 -0.317593 0.568921 -3.42265 -0.0711727 -4.0544 11.6212 -1.54651 10.9918 -8.60565 -1.94878 -0.0 0.0 0.0 -0.0 0.0 0.0 -2.20975e-14 1.94013e-13 -7.62339e-14 16.0709 56.511 -18.1574 18.8737 -54.168 -116.883 -1.34146 -30.9729 -4.83894 2.62698e-10 -1.98894e-09 1.1691e-09 4.2458e-10 -3.61547e-09 2.03203e-09 2.62701e-10 -1.98894e-09 1.1691e-09 7.73091 5.47488 0.417314 2.62696e-10 -1.98894e-09 1.16911e-09 2.90554 0.965183 0.102902 2.62704e-10 -1.98894e-09 1.1691e-09 10.2786 0.731801 0.0259123 2.62697e-10 -1.98893e-09 1.16911e-09 2.22167 -0.733487 -0.20892 -2.20342e-14 1.94015e-13 -7.6383e-14 -22.5774 63.5025 14.6469 -19.9669 -53.3742 114.295 0.189169 -12.2982 1.75572 1.8248e-10 -1.18175e-09 -9.36495e-10 3.29432e-10 -2.07972e-09 -1.62321e-09 1.82462e-10 -1.18175e-09 -9.36463e-10 -7.73091 5.47488 -0.417314 1.82481e-10 -1.18178e-09 -9.36495e-10 -2.90554 0.965183 -0.102902 1.82477e-10 -1.18177e-09 -9.36494e-10 -10.2786 0.731801 -0.0259123 1.82487e-10 -1.18175e-09 -9.36502e-10 -2.22167 -0.733487 0.20892 -2.03217e-16 0.0 -3.88251e-19 -1.04787 -29.489 12.0393 -0.260474 35.8995 0.679414 -4.77696 -3.13495 -26.7482 2.03217e-16 0.0 3.88251e-19 -14.9709 -16.8099 -21.6545 0.0448045 25.202 -0.504455 6.15047 -10.5636 22.2065
69.6424 82.6941 -119.339 1.7038 -8.4279 7.0019 -2.37415 -11.6634 -0.334587 0.607095 -3.70396 -0.0748957 -4.32797 12.4036 -1.69422 11.8341 -9.16503 -2.14997 -0.0 0.0 0.0 -0.0 0.0 0.0 -4.57403e-14 1.55511e-13 -1.69522e-14 20.7885 58.2773 -21.4024 15.0882 -65.4919 -120.785 -1.92688 -35.4497 -5.77411 2.84983e-10 -1.30248e-09 7.92895e-10 4.73726e-10 -2.36833e-09 1.38329e-09 2.84988e-10 -1.30247e-09 7.92891e-10 7.73091 5.47488 0.417314 2.84981e-10 -1.30248e-09 7.92896e-10 2.90554 0.965183 0.102902 2.84989e-10 -1.30248e-09 7.92896e-10 10.2786 0.731801 0.0259123 2.8498e-10 -1.30247e-09 7.92904e-10 2.22167 -0.733487 -0.20892 -4.57494e-14 1.55512e-13 -1.71708e-14 -28.139 66.1949 18.7135 -17.5826 -64.6867 116.637 0.291923 -14.9706 2.1556 3.25884e-10 -1.49354e-09 -1.03824e-09 5.78609e-10 -2.62036e-09 -1.7956e-09 3.2587e-10 -1.49354e-09 -1.03821e-09 -7.73091 5.47488 -0.417314 3.25885e-10 -1.49356e-09 -1.03824e-09 -2.90554 0.965183 -0.102902 3.25882e-10 -1.49356e-09 -1.03824e-09 -10.2786 0.731801 -0.0259123 3.25891e-10 -1.49353e-09 -1.03824e-09 -2.22167 -0.733487 0.20892 -2.03217e-16 0.0 -3.88251e-19 -0.790452 -31.4535 12.8312 -0.330217 38.8715 0.770539 -5.32814 -3.68492 -28.2359 2.03217e-16 0.0 3.88251e-19 -16.4434 -17.6037 -23.2008 0.06868 27.0906 -0.553889 6.9133 -11.2999 23.8164
69.7105 82.6404 -119.305 1.6924 -8.3462 6.8441 -2.38172 -11.3904 -0.321806 0.595277 -3.73711 -0.0728188 -4.31608 12.2644 -1.73146 11.8816 -9.0309 -2.22439 -0.0 0.0 0.0 -0.0 0.0 0.0 -7.88927e-14 7.81223e-14 7.78087e-14 21.7996 55.2339 -20.7537 15.2759 -64.3402 -120.88 -2.33484 -38.5588 -6.4615 2.92471e-10 -5.67307e-11 1.07358e-10 5.05667e-10 -1.05404e-10 1.99582e-10 2.92478e-10 -5.67189e-11 1.07351e-10 7.73091 5.47488 0.417314 2.92469e-10 -5.67304e-11 1.07357e-10 2.90554 0.965183 0.102902 2.92476e-10 -5.67298e-11 1.07357e-10 10.2786 0.731801 0.0259123 2.92466e-10 -5.67259e-11 1.07364e-10 2.22167 -0.733487 -0.20892 -7.90158e-14 7.8122e-14 7.74701e-14 -28.7308 63.5802 18.5139 -17.6233 -63.5242 116.86 0.404131 -17.4462 2.53741 5.2274e-10 -1.84107e-09 -1.08826e-09 9.19304e-10 -3.21965e-09 -1.87629e-09 5.22732e-10 -1.84109e-09 -1.08823e-09 -7.73091 5.47488 -0.417314 5.22741e-10 -1.84109e-09 -1.08826e-09 -2.90554 0.965183 -0.102902 5.22737e-10 -1.84109e-09 -1.08826e-09 -10.2786 0.731801 -0.0259123 5.22746e-10 -1.84107e-09 -1.08826e-09 -2.22167 -0.733487 0.20892 -2.03217e-16 0.0 -3.88251e-19 -1.03415 -31.514 12.2733 -0.333792 39.1984 0.781492 -5.31249 -3.9403 -27.4278 2.03217e-16 0.0 3.88251e-19 -16.3752 -17.5586 -22.8922 0.0683855 27.1484 -0.552995 6.77999 -11.1346 23.5968
